<?xml version="1.0" encoding="UTF-8"?>
<svg width="100px" height="100px" viewBox="0 0 100 100" version="1.1" xmlns="http://www.w3.org/2000/svg" xmlns:xlink="http://www.w3.org/1999/xlink">
    <!-- Generator: Sketch 50.2 (55047) - http://www.bohemiancoding.com/sketch -->
    <title>archived</title>
    <desc>Created with Sketch.</desc>
    <defs>
        <filter x="-10.8%" y="-8.1%" width="121.7%" height="116.2%" filterUnits="objectBoundingBox" id="filter-1">
            <feMorphology radius="0.5" operator="dilate" in="SourceAlpha" result="shadowSpreadOuter1"></feMorphology>
            <feOffset dx="0" dy="0" in="shadowSpreadOuter1" result="shadowOffsetOuter1"></feOffset>
            <feGaussianBlur stdDeviation="2" in="shadowOffsetOuter1" result="shadowBlurOuter1"></feGaussianBlur>
            <feComposite in="shadowBlurOuter1" in2="SourceAlpha" operator="out" result="shadowBlurOuter1"></feComposite>
            <feColorMatrix values="0 0 0 0 0   0 0 0 0 0   0 0 0 0 0  0 0 0 0.5 0" type="matrix" in="shadowBlurOuter1" result="shadowMatrixOuter1"></feColorMatrix>
            <feMerge>
                <feMergeNode in="shadowMatrixOuter1"></feMergeNode>
                <feMergeNode in="SourceGraphic"></feMergeNode>
            </feMerge>
        </filter>
    </defs>
    <g id="archived" stroke="none" stroke-width="1" fill="none" fill-rule="evenodd">
        <rect id="Rectangle-3" fill-opacity="0.497169384" fill="#00BFC0" x="0" y="0" width="100" height="100" rx="10"></rect>
        <g id="Group" filter="url(#filter-1)" transform="translate(20.000000, 10.000000)" fill="#FFFFFF" stroke="#979797">
            <rect id="Rectangle-10" x="0.5" y="0.5" width="59" height="7"></rect>
            <rect id="Rectangle-10" x="0.5" y="72.5" width="59" height="7"></rect>
            <path d="M54.4856057,71.5 C41.3753517,68.6067005 31.5,55.5940122 31.5,40 C31.5,24.4059878 41.3753517,11.3932995 54.4856057,8.5 L5.51439428,8.5 C18.6246483,11.3932995 28.5,24.4059878 28.5,40 C28.5,55.5940122 18.6246483,68.6067005 5.51439428,71.5 L54.4856057,71.5 Z M60,8 L60,8.4 L59.5,8.4 L59.5,8 L60,8 Z M6.78085114e-16,8.4 L0,8 L0.5,8 L0.5,8.4 L6.78085114e-16,8.4 Z M0,72 L0,71.6 L0.5,71.6 L0.5,72 L0,72 Z M60,71.6 L60,72 L59.5,72 L59.5,71.6 L60,71.6 Z" id="Combined-Shape"></path>
            <polygon id="Triangle-4" transform="translate(30.000000, 17.000000) scale(1, -1) translate(-30.000000, -17.000000) " points="30 8 50 26 10 26"></polygon>
            <polygon id="Triangle-4" points="30 64 50 72 10 72"></polygon>
            <circle id="Oval-7" cx="27.5" cy="28.5" r="1"></circle>
            <circle id="Oval-7" cx="27.5" cy="31.5" r="1"></circle>
            <circle id="Oval-7" cx="30.5" cy="32.5" r="1"></circle>
            <circle id="Oval-7" cx="31.5" cy="31.5" r="1"></circle>
            <circle id="Oval-7" cx="28.5" cy="30.5" r="1"></circle>
            <circle id="Oval-7" cx="30.5" cy="30.5" r="1"></circle>
            <circle id="Oval-7" cx="32.5" cy="30.5" r="1"></circle>
            <circle id="Oval-7" cx="30.5" cy="29.5" r="1"></circle>
            <circle id="Oval-7" cx="32.5" cy="28.5" r="1"></circle>
            <circle id="Oval-7" cx="32.5" cy="26.5" r="1"></circle>
            <circle id="Oval-7" cx="29.5" cy="29.5" r="1"></circle>
            <circle id="Oval-7" cx="27.5" cy="27.5" r="1"></circle>
            <circle id="Oval-7" cx="28.5" cy="27.5" r="1"></circle>
            <circle id="Oval-7" cx="30.5" cy="28.5" r="1"></circle>
            <circle id="Oval-7" cx="26.5" cy="26.5" r="1"></circle>
            <circle id="Oval-7" cx="32.5" cy="27.5" r="1"></circle>
            <circle id="Oval-7" cx="26.5" cy="24.5" r="1"></circle>
            <circle id="Oval-7" cx="30.5" cy="37.5" r="1"></circle>
            <path d="M29.8354108,35.2474544 C30.1115532,35.2474544 29.8354108,36.1665522 29.8354108,35.8904098 C29.8354108,35.6142674 28.7761424,36 28.5,36 C28.2238576,36 29.8354108,35.7238576 29.8354108,36 C29.8354108,36.2761424 29.5592684,35.2474544 29.8354108,35.2474544 Z" id="Oval-7"></path>
            <circle id="Oval-7" cx="30.5" cy="36.5" r="1"></circle>
            <circle id="Oval-7" cx="28.5" cy="34.5" r="1"></circle>
            <circle id="Oval-7" cx="30.5" cy="34.5" r="1"></circle>
            <circle id="Oval-7" cx="28.5" cy="33.5" r="1"></circle>
            <circle id="Oval-7" cx="31.5" cy="32.5" r="1"></circle>
            <circle id="Oval-7" cx="36.5" cy="20.5" r="1"></circle>
            <circle id="Oval-7" cx="34.5" cy="22.5" r="1"></circle>
            <circle id="Oval-7" cx="33.5" cy="25.5" r="1"></circle>
            <circle id="Oval-7" cx="25.5" cy="22.5" r="1"></circle>
            <circle id="Oval-7" cx="30.5" cy="44.5" r="1"></circle>
            <circle id="Oval-7" cx="31.5" cy="52.5" r="1"></circle>
            <circle id="Oval-7" cx="27.5" cy="54.5" r="1"></circle>
            <circle id="Oval-7" cx="31.5" cy="56.5" r="1"></circle>
            <circle id="Oval-7" cx="26.5" cy="58.5" r="1"></circle>
            <circle id="Oval-7" cx="34.5" cy="62.5" r="1"></circle>
            <circle id="Oval-7" cx="28.5" cy="49.5" r="1"></circle>
        </g>
    </g>
</svg>