<?xml version="1.0" encoding="UTF-8"?>
<svg width="101px" height="100px" viewBox="0 0 101 100" version="1.1" xmlns="http://www.w3.org/2000/svg" xmlns:xlink="http://www.w3.org/1999/xlink">
    <!-- Generator: Sketch 50.2 (55047) - http://www.bohemiancoding.com/sketch -->
    <title>evening</title>
    <desc>Created with Sketch.</desc>
    <defs>
        <path d="M55.2243047,10.2204075 C39.3306165,12.0886054 27,25.6043178 27,42 C27,59.673112 41.326888,74 59,74 C75.3956822,74 88.9113946,61.6693835 90.7795925,45.7756953 C90.9252982,47.1638841 91,48.5732183 91,50 C91,72.09139 73.09139,90 51,90 C28.90861,90 11,72.09139 11,50 C11,27.90861 28.90861,10 51,10 C52.4267817,10 53.8361159,10.0747018 55.2243047,10.2204075 Z" id="path-1"></path>
        <filter x="-8.1%" y="-8.1%" width="116.2%" height="116.2%" filterUnits="objectBoundingBox" id="filter-2">
            <feMorphology radius="0.5" operator="dilate" in="SourceAlpha" result="shadowSpreadOuter1"></feMorphology>
            <feOffset dx="0" dy="0" in="shadowSpreadOuter1" result="shadowOffsetOuter1"></feOffset>
            <feGaussianBlur stdDeviation="2" in="shadowOffsetOuter1" result="shadowBlurOuter1"></feGaussianBlur>
            <feComposite in="shadowBlurOuter1" in2="SourceAlpha" operator="out" result="shadowBlurOuter1"></feComposite>
            <feColorMatrix values="0 0 0 0 0   0 0 0 0 0   0 0 0 0 0  0 0 0 0.5 0" type="matrix" in="shadowBlurOuter1"></feColorMatrix>
        </filter>
    </defs>
    <g id="evening" stroke="none" stroke-width="1" fill="none" fill-rule="evenodd">
        <rect id="Rectangle-3" fill-opacity="0.497169384" fill="#00BFC0" x="0.5" y="0" width="100" height="100" rx="10"></rect>
        <g id="Combined-Shape">
            <use fill="black" fill-opacity="1" filter="url(#filter-2)" xlink:href="#path-1"></use>
            <use stroke="#979797" stroke-width="1" fill="#FFFFFF" fill-rule="evenodd" xlink:href="#path-1"></use>
        </g>
    </g>
</svg>