<?xml version="1.0" encoding="UTF-8"?>
<svg width="100px" height="100px" viewBox="0 0 100 100" version="1.1" xmlns="http://www.w3.org/2000/svg" xmlns:xlink="http://www.w3.org/1999/xlink">
    <!-- Generator: Sketch 50.2 (55047) - http://www.bohemiancoding.com/sketch -->
    <title>fidgetech</title>
    <desc>Created with Sketch.</desc>
    <defs>
        <filter x="-8.8%" y="-9.7%" width="117.5%" height="119.4%" filterUnits="objectBoundingBox" id="filter-1">
            <feMorphology radius="0.5" operator="dilate" in="SourceAlpha" result="shadowSpreadOuter1"></feMorphology>
            <feOffset dx="0" dy="0" in="shadowSpreadOuter1" result="shadowOffsetOuter1"></feOffset>
            <feGaussianBlur stdDeviation="2" in="shadowOffsetOuter1" result="shadowBlurOuter1"></feGaussianBlur>
            <feComposite in="shadowBlurOuter1" in2="SourceAlpha" operator="out" result="shadowBlurOuter1"></feComposite>
            <feColorMatrix values="0 0 0 0 0   0 0 0 0 0   0 0 0 0 0  0 0 0 0.5 0" type="matrix" in="shadowBlurOuter1" result="shadowMatrixOuter1"></feColorMatrix>
            <feMerge>
                <feMergeNode in="shadowMatrixOuter1"></feMergeNode>
                <feMergeNode in="SourceGraphic"></feMergeNode>
            </feMerge>
        </filter>
    </defs>
    <g id="fidgetech" stroke="none" stroke-width="1" fill="none" fill-rule="evenodd">
        <rect id="Rectangle-3" fill-opacity="0.497169384" fill="#00BFC0" x="0" y="0" width="100" height="100" rx="10"></rect>
        <g id="Group" filter="url(#filter-1)" transform="translate(10.000000, 13.000000)" fill="#FFFFFF" stroke="#979797">
            <path d="M47.1662637,12.2580826 L51.6453548,19.9196858 C48.9304213,24.6113924 48.8807635,30.9464716 52.0291809,36.3996905 C55.2126915,41.9136926 60.8119183,45.0468087 66.2905871,44.9707438 L70.0746142,51.4434191 C68.9434015,50.8170559 67.6424854,50.4605263 66.258427,50.4605263 C61.895998,50.4605263 58.3595506,54.0024841 58.3595506,58.3717105 C58.3595506,61.1466472 59.7860259,63.5878936 61.9446088,65 L54.6291536,65 C51.9958054,60.1165391 46.4227805,56.7486526 39.9734939,56.7486526 C33.5242072,56.7486526 27.9511823,60.1165391 25.3178394,64.999999 L17.6284249,65 C19.7870078,63.5878936 21.2134831,61.1466472 21.2134831,58.3717105 C21.2134831,54.0024841 17.6770357,50.4605263 13.3146067,50.4605263 C12.1703585,50.4605263 11.0829371,50.7042104 10.1012551,51.1425899 L13.8595913,44.713857 C19.113572,44.5298782 24.3804332,41.4325555 27.4302366,36.1501411 C30.4448472,30.9286824 30.5274406,24.8987283 28.1457292,20.2770422 L31.5262569,14.4945606 C32.027709,18.3799712 35.3436436,21.3815789 39.3595506,21.3815789 C43.7219795,21.3815789 47.258427,17.8396211 47.258427,13.4703947 C47.258427,13.058166 47.226947,12.6533012 47.1662634,12.2580804 Z M44.2366475,7.2468971 C42.8937072,6.1897385 41.2001482,5.55921053 39.3595506,5.55921053 C38.3202178,5.55921053 37.3277689,5.76025673 36.4188578,6.1256379 L40,0 L44.2366475,7.2468971 Z M9.00078862,65 L2,65 L5.44881867,59.1007049 C5.67416011,61.5710176 7.03339195,63.7129643 9.00078862,65 Z M70.5722451,65 C72.7165718,63.5972198 74.1384293,61.1788484 74.1571169,58.4266473 L78,65 L70.5722451,65 Z" id="Combined-Shape"></path>
            <path d="M39.5,27 C32.0441559,27 26,20.9558441 26,13.5 C26,6.04415588 32.0441559,0 39.5,0 C46.9558441,0 53,6.04415588 53,13.5 C53,20.9558441 46.9558441,27 39.5,27 Z M39.5,21.4285714 C43.8788291,21.4285714 47.4285714,17.8788291 47.4285714,13.5 C47.4285714,9.12117091 43.8788291,5.57142857 39.5,5.57142857 C35.1211709,5.57142857 31.5714286,9.12117091 31.5714286,13.5 C31.5714286,17.8788291 35.1211709,21.4285714 39.5,21.4285714 Z" id="Combined-Shape"></path>
            <path d="M13.5,72 C6.04415588,72 0,65.9558441 0,58.5 C0,51.0441559 6.04415588,45 13.5,45 C20.9558441,45 27,51.0441559 27,58.5 C27,65.9558441 20.9558441,72 13.5,72 Z M13.5,66.4285714 C17.8788291,66.4285714 21.4285714,62.8788291 21.4285714,58.5 C21.4285714,54.1211709 17.8788291,50.5714286 13.5,50.5714286 C9.12117091,50.5714286 5.57142857,54.1211709 5.57142857,58.5 C5.57142857,62.8788291 9.12117091,66.4285714 13.5,66.4285714 Z" id="Combined-Shape"></path>
            <path d="M66.5,72 C59.0441559,72 53,65.9558441 53,58.5 C53,51.0441559 59.0441559,45 66.5,45 C73.9558441,45 80,51.0441559 80,58.5 C80,65.9558441 73.9558441,72 66.5,72 Z M66.5,66.4285714 C70.8788291,66.4285714 74.4285714,62.8788291 74.4285714,58.5 C74.4285714,54.1211709 70.8788291,50.5714286 66.5,50.5714286 C62.1211709,50.5714286 58.5714286,54.1211709 58.5714286,58.5 C58.5714286,62.8788291 62.1211709,66.4285714 66.5,66.4285714 Z" id="Combined-Shape"></path>
            <circle id="Oval-6" cx="40" cy="41" r="8"></circle>
        </g>
    </g>
</svg>