<?xml version="1.0" encoding="UTF-8"?>
<svg width="100px" height="100px" viewBox="0 0 100 100" version="1.1" xmlns="http://www.w3.org/2000/svg" xmlns:xlink="http://www.w3.org/1999/xlink">
    <!-- Generator: Sketch 50.2 (55047) - http://www.bohemiancoding.com/sketch -->
    <title>workshops</title>
    <desc>Created with Sketch.</desc>
    <defs>
        <filter x="-8.1%" y="-9.3%" width="116.2%" height="118.6%" filterUnits="objectBoundingBox" id="filter-1">
            <feMorphology radius="0.5" operator="dilate" in="SourceAlpha" result="shadowSpreadOuter1"></feMorphology>
            <feOffset dx="0" dy="0" in="shadowSpreadOuter1" result="shadowOffsetOuter1"></feOffset>
            <feGaussianBlur stdDeviation="2" in="shadowOffsetOuter1" result="shadowBlurOuter1"></feGaussianBlur>
            <feComposite in="shadowBlurOuter1" in2="SourceAlpha" operator="out" result="shadowBlurOuter1"></feComposite>
            <feColorMatrix values="0 0 0 0 0   0 0 0 0 0   0 0 0 0 0  0 0 0 0.5 0" type="matrix" in="shadowBlurOuter1" result="shadowMatrixOuter1"></feColorMatrix>
            <feMerge>
                <feMergeNode in="shadowMatrixOuter1"></feMergeNode>
                <feMergeNode in="SourceGraphic"></feMergeNode>
            </feMerge>
        </filter>
    </defs>
    <g id="workshops" stroke="none" stroke-width="1" fill="none" fill-rule="evenodd">
        <rect id="Rectangle-3" fill-opacity="0.497169384" fill="#00BFC0" x="0" y="0" width="100" height="100" rx="10"></rect>
        <g id="Group" filter="url(#filter-1)" transform="translate(10.000000, 15.000000)" fill="#FFFFFF" stroke="#979797">
            <path d="M78.5,29.5 L40,0.625 L1.5,29.5 L15.7,29.5 L15.7,69.5 L64.7,69.5 L64.7,29.5 L78.5,29.5 Z" id="Combined-Shape"></path>
            <path d="M36.3823529,65.5 L43.2254902,65.5 L43.2254902,35.6530595 L43.5354843,35.5257041 C47.1076393,34.0581492 49.5,30.5050309 49.5,26.4940974 C49.5,22.7472919 47.4123483,19.3999909 44.2254902,17.7790823 L44.2254902,27.194635 L35.3823529,27.194635 L35.3823529,17.990681 C32.4096267,19.6846047 30.5,22.910357 30.5,26.4940974 C30.5,30.3555962 32.7171098,33.8014646 36.092322,35.3632256 L36.3823529,35.4974272 L36.3823529,65.5 Z" id="Combined-Shape" transform="translate(40.000000, 41.500000) rotate(45.000000) translate(-40.000000, -41.500000) "></path>
        </g>
    </g>
</svg>